<svg width="346" height="24" viewBox="0 0 346 24" fill="none" xmlns="http://www.w3.org/2000/svg">
<path d="M103.761 1.57535H93.4375V3.59135H95.8806V18.7594H98.1561V11.1514H100.887C103.09 11.1514 103.833 11.9914 105.941 15.3034L108.144 18.7594H110.995L108.024 14.1274C106.899 12.3754 105.989 11.5114 104.767 10.9354C108.096 10.4314 109.605 8.72735 109.605 6.27935C109.605 5.03135 109.174 3.59135 107.905 2.60735C106.875 1.81535 105.701 1.57535 103.761 1.57535ZM103.282 9.13535H98.1561V3.47135H103.665C105.198 3.47135 107.258 4.02335 107.258 6.27935C107.258 6.95135 107.018 7.79135 106.252 8.39135C105.653 8.84735 104.983 9.13535 103.282 9.13535Z" fill="#333333"/>
<path d="M112.1 12.5434C112.1 14.9674 112.818 16.4554 113.848 17.4634C114.998 18.5914 116.459 19.0234 117.92 19.0234C121.297 19.0234 123.741 16.8154 123.741 12.5434C123.741 7.52735 120.459 6.03935 117.92 6.03935C114.567 6.03935 112.1 8.27135 112.1 12.5434ZM117.896 7.76735C120.22 7.76735 121.585 9.61535 121.585 12.5434C121.585 15.6634 120.052 17.2954 117.92 17.2954C115.74 17.2954 114.255 15.6154 114.255 12.5434C114.255 9.47135 115.764 7.76735 117.896 7.76735Z" fill="#333333"/>
<path d="M128.02 8.05535V6.32735H126.128V18.7594H128.236V12.0874C128.236 11.2234 128.283 10.4794 128.475 9.90335C128.93 8.48735 130.176 7.86335 131.301 7.86335C132.81 7.86335 133.505 8.77535 133.505 10.5754V18.7594H135.613V11.4394C135.613 9.56735 136.499 7.86335 138.631 7.86335C140.26 7.86335 140.882 8.79935 140.882 10.7674V18.7594H142.99V10.1434C142.99 7.50335 141.601 6.03935 139.11 6.03935C137.29 6.03935 136.188 6.92735 135.278 8.22335C134.775 6.83135 133.601 6.03935 131.804 6.03935C130.319 6.03935 128.954 6.63935 128.02 8.05535Z" fill="#333333"/>
<path d="M156.332 17.0794C156.212 16.3594 156.212 15.6874 156.212 15.2314V10.2154C156.212 8.82335 156.044 7.98335 155.302 7.21535C154.607 6.49535 153.458 6.03935 151.326 6.03935C148.26 6.03935 146.368 7.14335 145.793 9.87935L147.853 10.1434C148.236 8.55935 148.907 7.76735 151.086 7.76735C153.41 7.76735 154.104 8.72735 154.104 10.3354V10.8634C153.338 11.1754 151.541 11.4634 150.152 11.6074C148.835 11.7514 147.877 11.9674 146.871 12.6394C145.96 13.2394 145.433 14.3674 145.433 15.4714C145.433 17.5834 147.014 19.0474 149.745 19.0474C151.278 19.0474 152.691 18.5194 154.248 17.2234C154.32 17.7994 154.44 18.2794 154.679 18.7594H158.248V17.0794H156.332ZM154.104 13.4314C154.104 14.7514 153.817 15.4474 153.314 16.0474C152.38 17.1514 151.014 17.3914 150.296 17.3914C148.619 17.3914 147.685 16.6474 147.685 15.4234C147.685 13.7434 149.242 13.5274 151.086 13.2394C152.907 12.9514 153.577 12.7354 154.104 12.5194V13.4314Z" fill="#333333"/>
<path d="M160.595 5.10335V6.32735H158.775V8.94335H160.595V18.7594H163.877V8.94335H166.344V6.32735H163.877V5.27135C163.877 4.38335 164.14 3.80735 165.218 3.80735C165.434 3.80735 166.105 3.85535 166.727 3.99935L167.158 1.69535C166.368 1.45535 165.314 1.28735 164.428 1.28735C162.919 1.28735 161.937 1.67135 161.29 2.46335C160.787 3.08735 160.595 3.95135 160.595 5.10335Z" fill="#333333"/>
<path d="M178.272 16.1434C178.249 15.7114 178.249 15.1834 178.249 14.5114L178.272 10.8874C178.296 8.19935 178.057 6.03935 173.027 6.03935C169.745 6.03935 168.284 7.21535 167.662 9.56735L170.632 10.1194C170.919 9.20735 171.422 8.55935 172.811 8.55935C174.584 8.55935 175.039 9.11135 175.039 10.1194V10.6474C174.368 10.9114 173.674 11.1034 171.997 11.4154C169.937 11.7994 167.326 12.4234 167.326 15.3754C167.326 17.5354 168.955 19.0474 171.446 19.0474C172.835 19.0474 174.081 18.5914 175.302 17.3914C175.566 18.3274 175.614 18.4954 175.734 18.7594H180.261V16.1434H178.272ZM175.039 13.7674C175.039 14.7514 174.919 15.1834 174.728 15.4954C174.225 16.2634 173.266 16.7194 172.428 16.7194C171.374 16.7194 170.608 15.9514 170.608 15.0154C170.608 14.2714 171.159 13.6954 172.428 13.4314C173.674 13.1674 173.913 13.1434 175.039 12.7834V13.7674Z" fill="#333333"/>
<path d="M181.481 12.4714C181.481 16.0474 183.469 18.7594 186.606 18.7594C188.115 18.7594 189.457 17.9194 190.271 16.7434H190.319V18.8554C190.319 20.6554 189.648 21.2794 187.588 21.2794C186.511 21.2794 185.816 21.0874 185.672 20.0314L181.912 19.5754C181.936 22.2874 183.588 23.7994 187.708 23.7994C192.594 23.7994 193.6 21.5674 193.6 17.7034V6.32735H190.535V8.05535H190.487C189.744 6.92735 188.499 6.03935 186.726 6.03935C184.523 6.03935 181.481 7.50335 181.481 12.4714ZM187.541 8.55935C189.792 8.55935 190.391 10.7194 190.391 12.3514C190.391 15.3994 188.594 16.0714 187.517 16.0714C185.433 16.0714 184.858 14.0314 184.858 12.2794C184.858 10.8634 185.313 8.55935 187.541 8.55935Z" fill="#333333"/>
<path d="M196.147 9.85535C196.147 12.8074 198.902 13.4554 202.543 14.2474C203.333 14.4154 204.004 14.5594 204.004 15.3274C204.004 16.4794 202.447 16.6954 201.632 16.6954C200.267 16.6954 199.285 16.0954 198.974 14.7034L195.692 15.2074C196.315 18.0154 199.022 19.0474 201.632 19.0474C205.728 19.0474 207.285 16.8154 207.285 14.8714C207.285 12.1114 204.77 11.4394 202.04 10.8394C200.674 10.5274 199.189 10.1914 199.189 9.42335C199.189 8.91935 199.62 8.39135 201.417 8.39135C202.758 8.39135 203.477 8.89535 203.764 9.90335L206.878 9.32735C206.183 6.92735 204.435 6.03935 201.393 6.03935C198.614 6.03935 196.147 7.09535 196.147 9.85535Z" fill="#333333"/>
<path d="M209.217 12.6154C209.217 14.1994 209.696 16.0714 210.702 17.2474C211.684 18.3994 213.193 19.0474 215.229 19.0474C217.864 19.0474 219.804 17.8234 220.642 15.3514L217.361 14.7994C217.026 15.9994 216.355 16.5274 215.277 16.5274C213.433 16.5274 212.618 14.9914 212.571 13.4794H220.81C220.81 8.82335 218.966 6.03935 214.918 6.03935C210.87 6.03935 209.217 9.42335 209.217 12.6154ZM215.086 8.55935C216.211 8.55935 217.505 9.25535 217.553 11.4634H212.642C212.642 9.87935 213.505 8.55935 215.086 8.55935Z" fill="#333333"/>
<path d="M226.335 8.00735L226.287 6.32735H223.245V18.7594H226.527V12.5194C226.527 11.5834 226.599 10.7434 226.814 10.0954C227.125 9.13535 228.036 8.55935 229.042 8.55935C230.551 8.55935 230.742 9.66335 230.742 11.4394V18.7594H234.024V12.5914C234.024 11.8234 234.072 11.4874 234.12 11.0554C234.287 9.66335 235.102 8.55935 236.491 8.55935C238.024 8.55935 238.239 9.78335 238.239 11.3194V18.7594H241.521V10.5514C241.521 7.55135 240.203 6.03935 237.449 6.03935C235.988 6.03935 234.742 6.68735 233.664 8.00735C232.85 6.54335 231.581 6.03935 230.143 6.03935C228.179 6.03935 227.173 6.99935 226.335 8.00735Z" fill="#333333"/>
<path d="M248.052 1.57535H244.77V4.62335H248.052V1.57535ZM248.052 6.32735H244.77V18.7594H248.052V6.32735Z" fill="#333333"/>
<path d="M254.527 8.15135V6.32735H251.413V18.7594H254.694V12.8554C254.694 11.9914 254.718 11.6554 254.838 10.7914C254.982 9.80735 255.724 8.55935 257.425 8.55935C259.221 8.55935 259.437 9.97535 259.437 11.9674V18.7594H262.718V10.6474C262.718 9.63935 262.647 8.22335 261.784 7.28735C261.257 6.71135 260.179 6.03935 258.575 6.03935C256.036 6.03935 254.862 7.71935 254.527 8.15135Z" fill="#333333"/>
<path d="M265.553 9.56735L268.523 10.1194C268.81 9.20735 269.313 8.55935 270.702 8.55935C272.475 8.55935 272.93 9.11135 272.93 10.1194V10.6474C272.259 10.9114 271.565 11.1034 269.888 11.4154C267.828 11.7994 265.217 12.4234 265.217 15.3754C265.217 17.5354 266.846 19.0474 269.337 19.0474C270.726 19.0474 271.972 18.5914 273.193 17.3914C273.457 18.3274 273.505 18.4954 273.625 18.7594H276.858C276.307 17.5114 276.116 16.9114 276.14 14.5114L276.164 10.8874C276.187 8.19935 275.948 6.03935 270.918 6.03935C267.637 6.03935 266.175 7.21535 265.553 9.56735ZM272.93 12.7834V13.7674C272.93 14.7514 272.81 15.1834 272.619 15.4954C272.116 16.2634 271.158 16.7194 270.319 16.7194C269.265 16.7194 268.499 15.9514 268.499 15.0154C268.499 14.2714 269.05 13.6954 270.319 13.4314C271.565 13.1674 271.804 13.1434 272.93 12.7834Z" fill="#333333"/>
<path d="M282.335 8.07935H282.287V6.32735H279.245V18.7594H282.527V14.4394C282.527 11.0794 282.766 8.99135 284.73 8.99135C285.281 8.99135 285.88 9.27935 286.263 9.51935L287.293 6.63935C286.718 6.30335 285.856 6.03935 285.138 6.03935C283.653 6.03935 282.982 6.97535 282.335 8.07935Z" fill="#333333"/>
<path d="M294.718 6.47135L296.874 6.71135C296.898 4.26335 298.479 3.23135 300.251 3.23135C302.12 3.23135 303.461 4.52735 303.461 6.23135C303.461 8.31935 301.449 10.1194 298.311 12.7114C296.108 14.5354 294.143 16.8394 294.311 18.7594H305.641V16.7434H297.233C297.928 15.5674 299.293 14.4634 300.754 13.2394C303.102 11.2954 305.617 9.13535 305.617 6.18335C305.617 3.63935 303.653 1.50335 300.275 1.50335C297.114 1.50335 295.006 3.18335 294.718 6.47135Z" fill="#333333"/>
<path d="M308.028 10.2874C308.028 16.3354 310.04 19.0474 313.633 19.0474C317.225 19.0474 319.214 16.2394 319.214 10.2874C319.214 4.28735 317.178 1.50335 313.609 1.50335C309.848 1.50335 308.028 4.62335 308.028 10.2874ZM313.585 3.23135C315.908 3.23135 317.058 5.29535 317.058 10.2874C317.058 14.8714 316.076 17.3194 313.609 17.3194C311.142 17.3194 310.184 14.8474 310.184 10.2874C310.184 5.65535 311.166 3.23135 313.585 3.23135Z" fill="#333333"/>
<path d="M321.337 6.47135L323.493 6.71135C323.517 4.26335 325.098 3.23135 326.87 3.23135C328.738 3.23135 330.08 4.52735 330.08 6.23135C330.08 8.31935 328.068 10.1194 324.93 12.7114C322.726 14.5354 320.762 16.8394 320.93 18.7594H332.259V16.7434H323.852C324.547 15.5674 325.912 14.4634 327.373 13.2394C329.721 11.2954 332.236 9.13535 332.236 6.18335C332.236 3.63935 330.271 1.50335 326.894 1.50335C323.732 1.50335 321.625 3.18335 321.337 6.47135Z" fill="#333333"/>
<path d="M334.647 6.47135L336.802 6.71135C336.826 4.26335 338.407 3.23135 340.18 3.23135C342.048 3.23135 343.389 4.52735 343.389 6.23135C343.389 8.31935 341.377 10.1194 338.24 12.7114C336.036 14.5354 334.072 16.8394 334.239 18.7594H345.569V16.7434H337.162C337.856 15.5674 339.222 14.4634 340.683 13.2394C343.03 11.2954 345.545 9.13535 345.545 6.18335C345.545 3.63935 343.581 1.50335 340.204 1.50335C337.042 1.50335 334.934 3.18335 334.647 6.47135Z" fill="#333333"/>
<path fill-rule="evenodd" clip-rule="evenodd" d="M14.0425 4.84771H12.0405C11.4141 4.84771 11.3371 4.92511 10.6107 5.65654C10.2454 6.0237 4.21713 12.0948 4.21713 12.0948V1.96264C4.21713 1.62249 4.03139 1.4353 3.68978 1.4353H0.624739C0.283138 1.4353 0.0966797 1.62249 0.0966797 1.96264V3.32508C0.0966797 3.66885 0.283138 3.85495 0.624739 3.85495H1.74601V16.352H0.630498C0.289257 16.352 0.102799 16.5385 0.102799 16.8786V18.2411C0.102799 18.583 0.289257 18.7752 0.630498 18.7752H5.3186C5.66056 18.7752 5.8481 18.5888 5.8481 18.2476V16.884C5.8481 16.5402 5.66056 16.352 5.3186 16.352H4.21713V15.3416L6.61805 12.9033L10.844 18.069C11.3998 18.7752 11.3998 18.7752 12.2133 18.7752H14.0386C14.378 18.7752 14.5648 18.5888 14.5648 18.2476V16.884C14.5648 16.5428 14.378 16.3571 14.0386 16.3571H12.5333L8.32896 11.1683L12.1715 7.27242H14.0425C14.3896 7.27242 14.5706 7.10141 14.5706 6.76485V5.37685C14.5706 5.03525 14.3834 4.84771 14.0425 4.84771Z" fill="#333333"/>
<path fill-rule="evenodd" clip-rule="evenodd" d="M30.5522 16.3571H29.4421V10.3962C29.4421 6.84774 27.2071 4.55444 23.75 4.55444C22.1562 4.55444 20.8182 5.04614 19.7725 6.01479V5.38271C19.7725 5.0411 19.5857 4.85393 19.2452 4.85393H16.2212C15.8792 4.85393 15.6924 5.03499 15.6924 5.37839V6.74011C15.6924 7.08137 15.8792 7.27212 16.2208 7.27212H17.3298V16.3571H16.2208C15.8792 16.3571 15.6924 16.5428 15.6924 16.8841V18.2476C15.6924 18.5878 15.8792 18.7753 16.2208 18.7753H20.8837C21.2253 18.7753 21.4114 18.5878 21.4114 18.2476V16.8841C21.4114 16.5428 21.2253 16.3571 20.8837 16.3571H19.7725V10.8213C19.7725 8.54782 21.3711 6.89705 23.5719 6.89705C25.7151 6.89705 26.9955 8.28827 26.9955 10.6215V16.3571H25.8872C25.5444 16.3571 25.3569 16.5428 25.3569 16.8841V18.2476C25.3569 18.5878 25.5444 18.7753 25.8872 18.7753H30.5522C30.8938 18.7753 31.0803 18.5878 31.0803 18.2476V16.8841C31.0803 16.5428 30.8938 16.3571 30.5522 16.3571Z" fill="#333333"/>
<path fill-rule="evenodd" clip-rule="evenodd" d="M38.1284 16.6814C35.5612 16.6814 33.549 14.5264 33.549 11.7763C33.549 9.0251 35.4978 6.94853 38.0801 6.94853C40.6618 6.94853 42.6855 9.10254 42.6855 11.8511C42.6855 14.6048 40.7266 16.6814 38.1284 16.6814ZM38.1284 4.57568C34.1346 4.57568 31.0059 7.77248 31.0059 11.8511C31.0059 15.8874 34.1134 19.0514 38.0801 19.0514C42.0904 19.0514 45.2311 15.8564 45.2311 11.7763C45.2311 7.73794 42.1117 4.57568 38.1284 4.57568Z" fill="#333333"/>
<path fill-rule="evenodd" clip-rule="evenodd" d="M65.9484 4.85395H61.1574C60.8158 4.85395 60.6286 5.04149 60.6286 5.38273V6.74481C60.6286 7.08533 60.8158 7.27212 61.1574 7.27212H62.234L59.9511 14.6506L56.7201 5.2499C56.632 4.99757 56.3962 4.82983 56.1338 4.82983H55.1788C54.9128 4.82983 54.677 4.99757 54.5899 5.2499L51.3913 14.6462L49.1071 7.27212H50.1851C50.526 7.27212 50.7125 7.08533 50.7125 6.74481V5.38273C50.7125 5.04149 50.526 4.85395 50.1851 4.85395H45.3408C44.9981 4.85395 44.8105 5.04149 44.8105 5.38273V6.74481C44.8105 7.08533 44.9981 7.27212 45.3408 7.27212H46.4786L50.2758 18.4186C50.364 18.662 50.5976 18.8279 50.8575 18.8279H51.8891C52.1537 18.8279 52.3888 18.6587 52.4741 18.4074L55.6514 9.2732L58.8133 18.4074C58.8979 18.6587 59.1337 18.8279 59.3997 18.8279H60.4324C60.6923 18.8279 60.9259 18.662 61.0131 18.42L64.8121 7.27212H65.9484C66.2918 7.27212 66.4793 7.08533 66.4793 6.74481V5.38273C66.4793 5.04149 66.2918 4.85395 65.9484 4.85395Z" fill="#333333"/>
<path fill-rule="evenodd" clip-rule="evenodd" d="M83.5684 11.696H82.2256C81.8838 11.696 81.6962 11.8817 81.6962 12.2233V14.8035C81.6962 15.6904 81.0648 16.609 80.0066 16.609C78.6788 16.609 78.1125 16.0565 78.1125 14.7653V7.27238H81.3536C81.6955 7.27238 81.8831 7.08523 81.8831 6.74507V5.38262C81.8831 5.04138 81.6955 4.85384 81.3536 4.85384H78.1125V1.95797C78.1125 1.61637 77.9257 1.4292 77.5845 1.4292H76.1731C75.8298 1.4292 75.6422 1.61637 75.6422 1.95797V4.85384H74.1664C73.8253 4.85384 73.6377 5.04138 73.6377 5.38262V6.74507C73.6377 7.08523 73.8253 7.27238 74.1664 7.27238H75.6422V14.8891C75.6422 17.3869 77.2759 19.0009 79.8028 19.0009C82.4118 19.0009 84.0964 17.4391 84.0964 15.0209V12.2233C84.0964 11.8817 83.9103 11.696 83.5684 11.696Z" fill="#333333"/>
<path fill-rule="evenodd" clip-rule="evenodd" d="M72.728 16.3572H71.6188V5.38279C71.6188 5.04119 71.4313 4.854 71.0887 4.854H68.0373C67.695 4.854 67.5085 5.04119 67.5085 5.38279V6.74487C67.5085 7.0854 67.695 7.27219 68.0373 7.27219H69.1485V16.3572H67.1316C66.7904 16.3572 66.6035 16.543 66.6035 16.8842V18.2477C66.6035 18.5879 66.7904 18.7754 67.1316 18.7754H72.728C73.0706 18.7754 73.2581 18.5879 73.2581 18.2477V16.8842C73.2581 16.543 73.0706 16.3572 72.728 16.3572Z" fill="#333333"/>
<path fill-rule="evenodd" clip-rule="evenodd" d="M70.3531 3.09529C71.2082 3.09529 71.9012 2.40236 71.9012 1.54746C71.9012 0.69472 71.2082 0 70.3531 0C69.4997 0 68.8057 0.69472 68.8057 1.54746C68.8057 2.40236 69.4997 3.09529 70.3531 3.09529Z" fill="#333333"/>
</svg>
