<svg id="Layer_1" data-name="Layer 1" xmlns="http://www.w3.org/2000/svg" viewBox="0 0 733.193 170.101">
    <defs>
        <style>.cls-1{fill:#333;}</style>
    </defs>
    <polygon class="cls-1" points="519.066 14.923 448.066 14.923 445.066 14.923 433.566 26.433 422.066 14.923 419.066 14.923 348.066 14.923 345.066 14.923 315.092 44.923 314.954 44.923 314.954 149.923 351.954 149.923 351.954 60.585 360.617 51.923 406.516 51.923 414.954 60.361 414.954 149.923 451.954 149.923 451.954 126.923 452.066 126.923 452.066 60.473 460.617 51.923 506.516 51.923 514.954 60.361 514.954 149.923 551.954 149.923 551.954 45.164 552.117 45 522.066 14.923 519.066 14.923" />
    <path class="cls-1" d="M290.959,56.923V45.164l.16-.164L261.725,14.923H186.408l-29.318,30h-.136v75h.135l29.319,30h75.317l29.394-30.077-.16-.164V56.923Zm-36.191,47.562-8.254,8.438h-44.9l-8.473-8.663V60.586l8.474-8.663h44.9l8.254,8.438Z" />
    <path class="cls-1" d="M681.066,15.923h-77l-29.974,30h-.138v74.335l.083,0,30.029,30.055.384-.387h42.5v-.461l.163.163,26.837-26.837v27.135h37V46.164l.163-.164Zm-7.112,54.539-42.461,42.461H619.229l-8.275-8.275V61.585l8.663-8.662h45.9l8.438,8.438Z" />
    <polygon class="cls-1" points="70.423 39.977 70.423 15.193 33.423 15.193 33.423 76.657 32.954 77.122 33.423 77.591 33.423 150.194 70.423 150.194 70.423 91.979 110.208 52.193 137.423 52.193 137.423 15.193 95.423 15.193 70.423 39.977" />
</svg>