<svg width="238" height="135" viewBox="0 0 238 135" fill="none" xmlns="http://www.w3.org/2000/svg">
<path d="M204.112 3.23464e-06V37L130.112 37V0L204.112 3.23464e-06Z" fill="#333333"/>
<path d="M100.112 30H137.112V112H100.112V30Z" fill="#333333"/>
<path d="M130.112 0L156.269 26.3933L126.275 56.3875L100.061 30.0771L130.112 0Z" fill="#333333"/>
<path d="M237 30H200V135H237V30Z" fill="#333333"/>
<path d="M133.112 6.46929e-06V37L207.112 37V3.23464e-06L133.112 6.46929e-06Z" fill="#333333"/>
<path d="M207.112 3.23464e-06L180.955 26.3933L210.949 56.3875L237.163 30.0771L207.112 3.23464e-06Z" fill="#333333"/>
<path d="M104.112 3.23464e-06V37L30.1122 37L30.1122 0L104.112 3.23464e-06Z" fill="#333333"/>
<path d="M0 30H37V135H0V30Z" fill="#333333"/>
<path d="M30.1122 0L56.2695 26.3933L26.2753 56.3875L0.0610615 30.0771L30.1122 0Z" fill="#333333"/>
<path d="M137 30H100V135H137V30Z" fill="#333333"/>
<path d="M33.1122 6.46929e-06V37L107.112 37V3.23464e-06L33.1122 6.46929e-06Z" fill="#333333"/>
<path d="M107.112 3.23464e-06L80.955 26.3933L110.949 56.3875L137.163 30.0771L107.112 3.23464e-06Z" fill="#333333"/>
</svg>
