<svg width="135" height="135" viewBox="0 0 135 135" fill="none" xmlns="http://www.w3.org/2000/svg">
<path d="M101.836 3.23464e-06V37L29.4539 37L29.4539 0L101.836 3.23464e-06Z" fill="#333333"/>
<path d="M5.73373e-08 30H36.1911V92H5.73373e-08V30Z" fill="#333333"/>
<path d="M29.4539 0L55.0393 26.3933L25.7008 56.3875L0.0597332 30.0771L29.4539 0Z" fill="#333333"/>
<path d="M134.005 30H97.8138V98H134.005V30Z" fill="#333333"/>
<path d="M32.3883 6.46928e-06V37L104.771 37V3.23464e-06L32.3883 6.46928e-06Z" fill="#333333"/>
<path d="M104.771 3.23464e-06L79.1852 26.3933L108.524 56.3875L134.165 30.0771L104.771 3.23464e-06Z" fill="#333333"/>
<path d="M32.3883 135L32.3883 98L104.771 98L104.771 135L32.3883 135Z" fill="#333333"/>
<path d="M134.005 105L97.8138 105L97.8138 42L134.005 42V105Z" fill="#333333"/>
<path d="M104.771 135L79.1852 108.607L108.524 78.6125L134.165 104.923L104.771 135Z" fill="#333333"/>
<path d="M0 105H36.1911L36.1911 42H5.38723e-06L0 105Z" fill="#333333"/>
<path d="M101.836 135V98H29.4539L29.4539 135H101.836Z" fill="#333333"/>
<path d="M29.4539 135L55.0393 108.607L25.7008 78.6125L0.0597358 104.923L29.4539 135Z" fill="#333333"/>
</svg>
