<svg width="138" height="135" viewBox="0 0 138 135" fill="none" xmlns="http://www.w3.org/2000/svg">
<path d="M104.112 3.23464e-06V37L30.1122 37L30.1122 0L104.112 3.23464e-06Z" fill="#333333"/>
<path d="M0 30H37V103L0 104.335V30Z" fill="#333333"/>
<path d="M30.1122 0L56.2695 26.3933L26.2753 56.3875L0.0610615 30.0771L30.1122 0Z" fill="#333333"/>
<path d="M137 30H100V134H137V30Z" fill="#333333"/>
<path d="M33.1122 1.17005e-05V37L107.112 37V8.46588e-06L33.1122 1.17005e-05Z" fill="#333333"/>
<path d="M107.112 8.46588e-06L80.955 26.3933L110.949 56.3875L137.163 30.0771L107.112 8.46588e-06Z" fill="#333333"/>
<path d="M73 134V96.9998H30L30 134L73 134Z" fill="#333333"/>
<path d="M30.1122 134.387L56.2695 107.994L26.2753 77.9997L0.0610717 104.31L30.1122 134.387Z" fill="#333333"/>
<path d="M133.796 73.0686L107.633 46.9057L47 107.539L73.1629 133.702L133.796 73.0686Z" fill="#333333"/>
</svg>
